<svg width="33" height="32" viewBox="0 0 33 32" fill="none" xmlns="http://www.w3.org/2000/svg">
<path d="M27.0391 15.9554H5.96091C5.13081 15.9554 4.45532 16.6308 4.45532 17.4609C4.45532 18.291 5.13081 18.9665 5.96091 18.9665H27.0391C27.8692 18.9665 28.5447 18.291 28.5447 17.4609C28.5447 16.6308 27.8692 15.9554 27.0391 15.9554Z" fill="#888B97"/>
<path d="M27.1775 17.9819C26.9055 17.9056 26.6325 18.0602 26.5572 18.3272L26.5181 18.4647H6.48276L6.44263 18.3272C6.36735 18.0602 6.09234 17.9076 5.82233 17.9819C5.55532 18.0581 5.40175 18.3362 5.47807 18.6022L6.86118 23.4441C7.28975 24.9447 8.67894 25.9926 10.2387 25.9926H22.7601C24.3209 25.9926 25.7091 24.9447 26.1377 23.4441L27.5208 18.6022C27.5981 18.3362 27.4435 18.0581 27.1775 17.9819ZM10.2397 23.9851C9.57123 23.9851 8.97502 23.5364 8.79233 22.893L8.14093 20.6106C8.06466 20.3436 8.21922 20.0665 8.48519 19.9903C8.75417 19.914 9.03021 20.0695 9.10549 20.3356L9.75689 22.618C9.81913 22.8318 10.0168 22.9824 10.2397 22.9824C10.5167 22.9824 10.7415 23.2072 10.7415 23.4843C10.7416 23.7613 10.5167 23.9851 10.2397 23.9851Z" fill="#888B97"/>
<path d="M11.2034 25.041C10.9555 24.9196 10.6554 25.017 10.5299 25.2659L9.52619 27.2733C9.40273 27.5212 9.50309 27.8224 9.75104 27.9469C9.82429 27.983 9.90061 28.0001 9.97589 28.0001C10.1596 28.0001 10.3362 27.8987 10.4246 27.7221L11.4283 25.7146C11.5517 25.4666 11.4513 25.1655 11.2034 25.041Z" fill="#888B97"/>
<path d="M23.4739 27.2743L22.4702 25.2669C22.3458 25.0179 22.0446 24.9186 21.7967 25.042C21.5488 25.1665 21.4484 25.4676 21.5718 25.7155L22.5755 27.723C22.6639 27.8986 22.8405 28 23.0242 28C23.0995 28 23.1758 27.9829 23.2491 27.9478C23.497 27.8233 23.5974 27.5222 23.4739 27.2743Z" fill="#888B97"/>
<path d="M24.615 4C24.1031 4 23.6213 4.19973 23.259 4.5621L21.6661 6.15501C21.4704 6.35073 21.4704 6.66893 21.6661 6.86465C21.8618 7.06038 22.18 7.06038 22.3757 6.86465L23.9686 5.27274C24.1402 5.10011 24.3701 5.00474 24.62 5.00474C25.1238 5.00474 25.5334 5.41426 25.5334 5.91811V16.4572C25.5334 16.7342 25.7582 16.9591 26.0352 16.9591C26.3123 16.9591 26.5371 16.7342 26.5381 16.4562V5.91713C26.5381 4.86021 25.6789 4 24.615 4Z" fill="#888B97"/>
<path d="M22.8776 6.65687L21.8739 5.65317C21.7594 5.53874 21.5998 5.48553 21.4372 5.51263L18.9279 5.92417C18.7433 5.95428 18.5917 6.08475 18.5325 6.26142C18.4733 6.43809 18.5184 6.63481 18.6489 6.76829L21.6601 9.86979C21.7555 9.96916 21.8869 10.0224 22.0194 10.0224C22.0666 10.0224 22.1148 10.0154 22.1619 10.0013C22.3406 9.94911 22.4761 9.80157 22.5122 9.61887L23.0141 7.10958C23.0472 6.94594 22.996 6.77628 22.8776 6.65687Z" fill="#888B97"/>
<path d="M16.3523 10.0805C16.1566 9.88481 15.8384 9.88481 15.6427 10.0805L14.639 11.0842C14.4433 11.28 14.4433 11.5982 14.639 11.7939C14.7374 11.8912 14.8658 11.9405 14.9943 11.9405C15.1228 11.9405 15.2512 11.8913 15.3486 11.7939L16.3523 10.7902C16.5481 10.5944 16.5481 10.2763 16.3523 10.0805Z" fill="#888B97"/>
<path d="M18.3599 12.088C18.1642 11.8922 17.846 11.8922 17.6503 12.088L16.6466 13.0917C16.4508 13.2874 16.4508 13.6056 16.6466 13.8013C16.7449 13.8987 16.8734 13.9479 17.0019 13.9479C17.1304 13.9479 17.2588 13.8987 17.3562 13.8013L18.3599 12.7976C18.5556 12.6019 18.5556 12.2837 18.3599 12.088Z" fill="#888B97"/>
<path d="M19.3636 9.07679C19.1678 8.88106 18.8496 8.88106 18.6539 9.07679L17.6502 10.0805C17.4545 10.2762 17.4545 10.5944 17.6502 10.7901C17.7486 10.8875 17.877 10.9367 18.0055 10.9367C18.134 10.9367 18.2625 10.8875 18.3599 10.7901L19.3636 9.78644C19.5593 9.59071 19.5593 9.27251 19.3636 9.07679Z" fill="#888B97"/>
</svg>
